<svg width="156" height="42" viewBox="0 0 156 42" fill="none" xmlns="http://www.w3.org/2000/svg">
<rect width="156" height="42" rx="8" fill="#ECE2D0"/>
<path d="M21.2 27.224C20.784 27.224 20.4053 27.1493 20.064 27C19.7227 26.84 19.4507 26.584 19.248 26.232C19.056 25.8693 18.9653 25.3947 18.976 24.808L19.024 20.792C19.024 20.5573 18.9867 20.3867 18.912 20.28C18.8373 20.1733 18.704 20.0987 18.512 20.056L18.32 19.992V19.704L21.056 19.176L21.232 19.352L21.152 21.608V25.24C21.152 25.6027 21.248 25.8693 21.44 26.04C21.6427 26.2 21.8933 26.28 22.192 26.28C22.5013 26.28 22.7787 26.2373 23.024 26.152C23.28 26.056 23.5413 25.9173 23.808 25.736L23.856 20.808C23.856 20.5627 23.8187 20.392 23.744 20.296C23.68 20.2 23.552 20.1253 23.36 20.072L23.184 20.024V19.736L25.856 19.176L26.032 19.352L25.984 21.608V25.8C25.984 26.024 26.0107 26.2053 26.064 26.344C26.128 26.472 26.2613 26.568 26.464 26.632L26.672 26.696V27L23.968 27.16L23.824 26.152C23.4613 26.4613 23.0667 26.7173 22.64 26.92C22.2133 27.1227 21.7333 27.224 21.2 27.224ZM27.5154 30.696V30.392L27.7234 30.328C27.9367 30.2747 28.086 30.184 28.1714 30.056C28.2567 29.9387 28.2994 29.768 28.2994 29.544C28.2994 29.1067 28.2994 28.6907 28.2994 28.296C28.31 27.912 28.3154 27.5387 28.3154 27.176V22.776C28.3154 22.4453 28.3154 22.1627 28.3154 21.928C28.3154 21.6827 28.31 21.4107 28.2994 21.112C28.2994 20.888 28.262 20.7173 28.1874 20.6C28.1127 20.472 27.9687 20.3867 27.7554 20.344L27.5154 20.296V20.008L30.0914 19.08L30.2834 19.24L30.4274 19.832C31.1634 19.3307 31.9954 19.08 32.9234 19.08C33.83 19.08 34.5554 19.4213 35.0994 20.104C35.654 20.7867 35.9314 21.7947 35.9314 23.128C35.9314 24.4187 35.6274 25.4267 35.0194 26.152C34.422 26.8667 33.606 27.224 32.5714 27.224C32.1554 27.224 31.7607 27.1867 31.3874 27.112C31.0247 27.0373 30.6994 26.9253 30.4114 26.776V27.256C30.4114 27.576 30.4114 27.9227 30.4114 28.296C30.422 28.6693 30.4274 29.0747 30.4274 29.512C30.4274 29.9387 30.614 30.2053 30.9874 30.312L31.2914 30.392V30.696H27.5154ZM31.8194 26.584C32.3847 26.584 32.8274 26.3333 33.1474 25.832C33.478 25.32 33.6434 24.44 33.6434 23.192C33.6434 21.9547 33.4887 21.0907 33.1794 20.6C32.87 20.0987 32.4327 19.848 31.8674 19.848C31.6647 19.848 31.446 19.88 31.2114 19.944C30.9767 20.008 30.726 20.1147 30.4594 20.264V26.312C30.886 26.4933 31.3394 26.584 31.8194 26.584ZM36.9455 27V26.696L37.1855 26.632C37.5375 26.5147 37.7135 26.248 37.7135 25.832C37.7135 25.4693 37.7135 25.1067 37.7135 24.744C37.7242 24.3707 37.7295 24.0027 37.7295 23.64V17.56C37.7295 17.336 37.6922 17.1707 37.6175 17.064C37.5428 16.9467 37.3988 16.8613 37.1855 16.808L36.9455 16.744V16.44L39.7455 15.768L39.9535 15.912L39.8895 18.168V25.832C39.9002 26.0453 39.9428 26.2213 40.0175 26.36C40.1028 26.488 40.2468 26.5787 40.4495 26.632L40.6735 26.696V27H36.9455ZM45.7179 27.224C44.9285 27.224 44.2352 27.0587 43.6379 26.728C43.0512 26.3973 42.5925 25.928 42.2619 25.32C41.9419 24.712 41.7819 23.9867 41.7819 23.144C41.7819 22.3013 41.9525 21.576 42.2939 20.968C42.6459 20.36 43.1152 19.896 43.7019 19.576C44.2992 19.2453 44.9712 19.08 45.7179 19.08C46.4645 19.08 47.1312 19.2453 47.7179 19.576C48.3152 19.896 48.7845 20.36 49.1259 20.968C49.4779 21.5653 49.6539 22.2907 49.6539 23.144C49.6539 23.9867 49.4885 24.7173 49.1579 25.336C48.8379 25.944 48.3845 26.4133 47.7979 26.744C47.2112 27.064 46.5179 27.224 45.7179 27.224ZM45.7179 26.776C46.1019 26.776 46.4112 26.6747 46.6459 26.472C46.8912 26.2587 47.0672 25.8907 47.1739 25.368C47.2805 24.8453 47.3339 24.1147 47.3339 23.176C47.3339 22.2267 47.2805 21.4907 47.1739 20.968C47.0672 20.4347 46.8912 20.0667 46.6459 19.864C46.4112 19.6507 46.1019 19.544 45.7179 19.544C45.3339 19.544 45.0245 19.6507 44.7899 19.864C44.5552 20.0667 44.3792 20.4347 44.2619 20.968C44.1552 21.4907 44.1019 22.2267 44.1019 23.176C44.1019 24.1147 44.1552 24.8453 44.2619 25.368C44.3792 25.8907 44.5552 26.2587 44.7899 26.472C45.0245 26.6747 45.3339 26.776 45.7179 26.776ZM52.9516 27.224C52.3436 27.224 51.8263 27.0533 51.3996 26.712C50.9836 26.36 50.7756 25.8587 50.7756 25.208C50.7756 24.696 51.021 24.2267 51.5116 23.8C52.013 23.3627 52.797 23.0427 53.8636 22.84C54.045 22.7973 54.253 22.76 54.4876 22.728C54.733 22.6853 54.973 22.6427 55.2076 22.6V21.464C55.2076 20.7387 55.117 20.2373 54.9356 19.96C54.7543 19.6827 54.4663 19.544 54.0716 19.544H54.0236C53.7783 19.544 53.581 19.624 53.4316 19.784C53.293 19.9333 53.2023 20.184 53.1596 20.536L53.1116 20.744C53.0796 21.1707 52.9676 21.4853 52.7756 21.688C52.5836 21.88 52.3436 21.976 52.0556 21.976C51.789 21.976 51.565 21.896 51.3836 21.736C51.213 21.5653 51.1276 21.3467 51.1276 21.08C51.1276 20.6427 51.277 20.2747 51.5756 19.976C51.8743 19.6773 52.269 19.4533 52.7596 19.304C53.261 19.1547 53.7996 19.08 54.3756 19.08C55.325 19.08 56.0503 19.3093 56.5516 19.768C57.053 20.2267 57.3036 20.9733 57.3036 22.008V25.576C57.3036 26.0347 57.5223 26.264 57.9596 26.264H58.3276L58.4876 26.44C58.2956 26.6853 58.0823 26.872 57.8476 27C57.613 27.1387 57.293 27.208 56.8876 27.208C56.429 27.208 56.061 27.1013 55.7836 26.888C55.517 26.664 55.341 26.3707 55.2556 26.008C54.9143 26.3707 54.5783 26.664 54.2476 26.888C53.917 27.112 53.485 27.224 52.9516 27.224ZM53.8796 26.2C54.093 26.2 54.2956 26.152 54.4876 26.056C54.6796 25.96 54.9196 25.8 55.2076 25.576V23.016C54.9303 23.0587 54.6476 23.112 54.3596 23.176C53.901 23.2827 53.5276 23.48 53.2396 23.768C52.9623 24.056 52.8236 24.4453 52.8236 24.936C52.8236 25.3627 52.9196 25.6827 53.1116 25.896C53.3143 26.0987 53.5703 26.2 53.8796 26.2ZM62.5304 27.224C61.901 27.224 61.3357 27.0853 60.8344 26.808C60.333 26.52 59.9384 26.0827 59.6504 25.496C59.373 24.8987 59.2344 24.1413 59.2344 23.224C59.2344 22.3067 59.3944 21.544 59.7144 20.936C60.0344 20.3173 60.461 19.8533 60.9944 19.544C61.5277 19.2347 62.1144 19.08 62.7544 19.08C63.1384 19.08 63.5064 19.128 63.8584 19.224C64.2104 19.3093 64.5197 19.4427 64.7864 19.624V17.544C64.7864 17.32 64.749 17.16 64.6744 17.064C64.6104 16.9573 64.4717 16.8773 64.2584 16.824L63.9384 16.76V16.456L66.7224 15.768L66.9304 15.912L66.8664 18.168V25.864C66.8664 26.0667 66.9037 26.2373 66.9784 26.376C67.053 26.504 67.1864 26.5947 67.3784 26.648L67.5544 26.696V27L64.8984 27.176L64.7544 26.504C64.4664 26.728 64.1357 26.904 63.7624 27.032C63.389 27.16 62.9784 27.224 62.5304 27.224ZM63.4104 26.488C63.869 26.488 64.301 26.3387 64.7064 26.04V20.088C64.3117 19.8427 63.885 19.72 63.4264 19.72C62.9037 19.72 62.4557 19.9973 62.0824 20.552C61.709 21.096 61.5224 21.976 61.5224 23.192C61.5224 24.408 61.6984 25.2613 62.0504 25.752C62.4024 26.2427 62.8557 26.488 63.4104 26.488ZM74.7554 27.224C74.1474 27.224 73.63 27.0533 73.2034 26.712C72.7874 26.36 72.5794 25.8587 72.5794 25.208C72.5794 24.696 72.8247 24.2267 73.3154 23.8C73.8167 23.3627 74.6007 23.0427 75.6674 22.84C75.8487 22.7973 76.0567 22.76 76.2914 22.728C76.5367 22.6853 76.7767 22.6427 77.0114 22.6V21.464C77.0114 20.7387 76.9207 20.2373 76.7394 19.96C76.558 19.6827 76.27 19.544 75.8754 19.544H75.8274C75.582 19.544 75.3847 19.624 75.2354 19.784C75.0967 19.9333 75.006 20.184 74.9634 20.536L74.9154 20.744C74.8834 21.1707 74.7714 21.4853 74.5794 21.688C74.3874 21.88 74.1474 21.976 73.8594 21.976C73.5927 21.976 73.3687 21.896 73.1874 21.736C73.0167 21.5653 72.9314 21.3467 72.9314 21.08C72.9314 20.6427 73.0807 20.2747 73.3794 19.976C73.678 19.6773 74.0727 19.4533 74.5634 19.304C75.0647 19.1547 75.6034 19.08 76.1794 19.08C77.1287 19.08 77.854 19.3093 78.3554 19.768C78.8567 20.2267 79.1074 20.9733 79.1074 22.008V25.576C79.1074 26.0347 79.326 26.264 79.7634 26.264H80.1314L80.2914 26.44C80.0994 26.6853 79.886 26.872 79.6514 27C79.4167 27.1387 79.0967 27.208 78.6914 27.208C78.2327 27.208 77.8647 27.1013 77.5874 26.888C77.3207 26.664 77.1447 26.3707 77.0594 26.008C76.718 26.3707 76.382 26.664 76.0514 26.888C75.7207 27.112 75.2887 27.224 74.7554 27.224ZM75.6834 26.2C75.8967 26.2 76.0994 26.152 76.2914 26.056C76.4834 25.96 76.7234 25.8 77.0114 25.576V23.016C76.734 23.0587 76.4514 23.112 76.1634 23.176C75.7047 23.2827 75.3314 23.48 75.0434 23.768C74.766 24.056 74.6274 24.4453 74.6274 24.936C74.6274 25.3627 74.7234 25.6827 74.9154 25.896C75.118 26.0987 75.374 26.2 75.6834 26.2ZM80.9273 27V26.696L81.1833 26.632C81.5353 26.5253 81.7113 26.264 81.7113 25.848V21.128C81.7006 20.904 81.6633 20.7333 81.5993 20.616C81.5353 20.488 81.3966 20.4027 81.1833 20.36L80.9273 20.296V20.008L83.5193 19.08L83.7113 19.256L83.8233 20.248C84.2073 19.9067 84.6339 19.6293 85.1033 19.416C85.5833 19.192 86.0526 19.08 86.5113 19.08C87.2153 19.08 87.7539 19.272 88.1273 19.656C88.5113 20.04 88.7033 20.6267 88.7033 21.416V25.864C88.7033 26.28 88.8953 26.5413 89.2793 26.648L89.4553 26.696V27H85.7753V26.696L86.0153 26.632C86.3673 26.5147 86.5433 26.2533 86.5433 25.848V21.096C86.5433 20.7227 86.4633 20.4507 86.3033 20.28C86.1433 20.1093 85.8766 20.024 85.5033 20.024C84.9806 20.024 84.4366 20.2533 83.8713 20.712V25.864C83.8713 26.28 84.0579 26.5413 84.4313 26.648L84.5913 26.696V27H80.9273ZM96.1264 18.2C95.7744 18.2 95.4757 18.088 95.2304 17.864C94.985 17.64 94.8624 17.3573 94.8624 17.016C94.8624 16.664 94.985 16.3813 95.2304 16.168C95.4757 15.944 95.7744 15.832 96.1264 15.832C96.4784 15.832 96.777 15.944 97.0224 16.168C97.2677 16.3813 97.3904 16.664 97.3904 17.016C97.3904 17.3573 97.2677 17.64 97.0224 17.864C96.777 18.088 96.4784 18.2 96.1264 18.2ZM94.2864 27V26.696L94.5264 26.632C94.7397 26.568 94.8837 26.472 94.9584 26.344C95.033 26.216 95.0757 26.0453 95.0864 25.832V22.888C95.0864 22.5573 95.0864 22.2533 95.0864 21.976C95.0864 21.688 95.081 21.3947 95.0704 21.096C95.0704 20.8827 95.0277 20.7173 94.9424 20.6C94.8677 20.472 94.7237 20.3867 94.5104 20.344L94.2864 20.296V20.008L97.0864 19.08L97.2784 19.256L97.2304 21.528V25.848C97.2304 26.0613 97.2677 26.232 97.3424 26.36C97.4277 26.488 97.5717 26.584 97.7744 26.648L97.9504 26.696V27H94.2864ZM98.981 27V26.68L99.333 26.584C99.5037 26.5307 99.6157 26.456 99.669 26.36C99.7223 26.2533 99.7543 26.1147 99.765 25.944V22.776C99.765 22.424 99.765 22.1253 99.765 21.88C99.765 21.6347 99.7597 21.3467 99.749 21.016C99.749 20.8347 99.7223 20.696 99.669 20.6C99.6157 20.4933 99.4983 20.4187 99.317 20.376L98.981 20.296V20.008L101.573 19.08L101.765 19.256L101.877 20.328C102.25 19.9867 102.666 19.6933 103.125 19.448C103.584 19.2027 104.053 19.08 104.533 19.08C105.066 19.08 105.482 19.1867 105.781 19.4C106.08 19.6133 106.309 19.9387 106.469 20.376C106.874 19.9707 107.322 19.656 107.813 19.432C108.304 19.1973 108.789 19.08 109.269 19.08C109.994 19.08 110.538 19.2613 110.901 19.624C111.264 19.9867 111.445 20.5573 111.445 21.336V25.96C111.445 26.3013 111.594 26.5147 111.893 26.6L112.197 26.68V27H108.597V26.68L108.885 26.6C109.173 26.504 109.317 26.2853 109.317 25.944V21.256C109.317 20.7973 109.232 20.488 109.061 20.328C108.901 20.1573 108.634 20.072 108.261 20.072C107.973 20.072 107.701 20.1307 107.445 20.248C107.189 20.3653 106.906 20.5467 106.597 20.792C106.661 21.112 106.693 21.48 106.693 21.896V25.96C106.704 26.1413 106.736 26.2853 106.789 26.392C106.853 26.488 106.97 26.5573 107.141 26.6L107.413 26.68V27H103.797V26.68L104.133 26.584C104.304 26.5307 104.416 26.456 104.469 26.36C104.533 26.2533 104.565 26.1147 104.565 25.944V21.272C104.565 20.8347 104.485 20.5253 104.325 20.344C104.165 20.1627 103.893 20.072 103.509 20.072C103.018 20.072 102.49 20.3067 101.925 20.776V25.96C101.925 26.312 102.074 26.5253 102.373 26.6L102.645 26.68V27H98.981ZM115.418 27.224C114.81 27.224 114.293 27.0533 113.866 26.712C113.45 26.36 113.242 25.8587 113.242 25.208C113.242 24.696 113.487 24.2267 113.978 23.8C114.479 23.3627 115.263 23.0427 116.33 22.84C116.511 22.7973 116.719 22.76 116.954 22.728C117.199 22.6853 117.439 22.6427 117.674 22.6V21.464C117.674 20.7387 117.583 20.2373 117.402 19.96C117.221 19.6827 116.933 19.544 116.538 19.544H116.49C116.245 19.544 116.047 19.624 115.898 19.784C115.759 19.9333 115.669 20.184 115.626 20.536L115.578 20.744C115.546 21.1707 115.434 21.4853 115.242 21.688C115.05 21.88 114.81 21.976 114.522 21.976C114.255 21.976 114.031 21.896 113.85 21.736C113.679 21.5653 113.594 21.3467 113.594 21.08C113.594 20.6427 113.743 20.2747 114.042 19.976C114.341 19.6773 114.735 19.4533 115.226 19.304C115.727 19.1547 116.266 19.08 116.842 19.08C117.791 19.08 118.517 19.3093 119.018 19.768C119.519 20.2267 119.77 20.9733 119.77 22.008V25.576C119.77 26.0347 119.989 26.264 120.426 26.264H120.794L120.954 26.44C120.762 26.6853 120.549 26.872 120.314 27C120.079 27.1387 119.759 27.208 119.354 27.208C118.895 27.208 118.527 27.1013 118.25 26.888C117.983 26.664 117.807 26.3707 117.722 26.008C117.381 26.3707 117.045 26.664 116.714 26.888C116.383 27.112 115.951 27.224 115.418 27.224ZM116.346 26.2C116.559 26.2 116.762 26.152 116.954 26.056C117.146 25.96 117.386 25.8 117.674 25.576V23.016C117.397 23.0587 117.114 23.112 116.826 23.176C116.367 23.2827 115.994 23.48 115.706 23.768C115.429 24.056 115.29 24.4453 115.29 24.936C115.29 25.3627 115.386 25.6827 115.578 25.896C115.781 26.0987 116.037 26.2 116.346 26.2ZM124.968 24.264C124.264 24.264 123.661 24.1467 123.16 23.912V24.488C123.16 24.808 123.32 25 123.64 25.064L126.488 25.592C127.032 25.6987 127.512 25.832 127.928 25.992C128.344 26.1413 128.669 26.36 128.904 26.648C129.138 26.9253 129.256 27.304 129.256 27.784C129.256 28.296 129.085 28.7707 128.744 29.208C128.413 29.656 127.917 30.0133 127.256 30.28C126.605 30.5573 125.789 30.696 124.808 30.696C123.965 30.696 123.293 30.6053 122.792 30.424C122.301 30.2533 121.949 30.0293 121.736 29.752C121.522 29.4747 121.416 29.176 121.416 28.856C121.416 28.472 121.544 28.088 121.8 27.704C122.066 27.32 122.408 27 122.824 26.744C122.173 26.4987 121.848 26.1093 121.848 25.576C121.848 25.3733 121.896 25.1867 121.992 25.016C122.088 24.8453 122.205 24.6747 122.344 24.504L122.92 23.784C122.152 23.336 121.768 22.6373 121.768 21.688C121.768 20.9093 122.04 20.28 122.584 19.8C123.138 19.32 123.933 19.08 124.968 19.08C126.002 19.08 126.802 19.32 127.368 19.8C127.709 19.7467 128.029 19.6613 128.328 19.544C128.626 19.4267 128.904 19.2667 129.16 19.064L129.384 19.224V20.12H127.656C127.997 20.5467 128.168 21.0693 128.168 21.688C128.168 22.4453 127.89 23.064 127.336 23.544C126.792 24.024 126.002 24.264 124.968 24.264ZM124.936 23.832C125.384 23.832 125.709 23.6613 125.912 23.32C126.125 22.968 126.232 22.408 126.232 21.64C126.232 20.8827 126.13 20.3387 125.928 20.008C125.725 19.6773 125.41 19.512 124.984 19.512C124.557 19.512 124.237 19.6827 124.024 20.024C123.821 20.3547 123.72 20.904 123.72 21.672C123.72 22.44 123.816 22.9947 124.008 23.336C124.2 23.6667 124.509 23.832 124.936 23.832ZM122.664 28.392C122.664 28.9787 122.85 29.416 123.224 29.704C123.597 30.0027 124.189 30.152 125 30.152C125.896 30.152 126.557 30.0027 126.984 29.704C127.421 29.416 127.64 29.032 127.64 28.552C127.64 28.2533 127.528 28.0187 127.304 27.848C127.09 27.6773 126.728 27.544 126.216 27.448L123.352 26.888C123.309 26.8773 123.266 26.8667 123.224 26.856C123.064 27.0693 122.93 27.3147 122.824 27.592C122.717 27.8693 122.664 28.136 122.664 28.392ZM134.035 19.08C134.707 19.08 135.283 19.2187 135.763 19.496C136.243 19.7733 136.611 20.1573 136.867 20.648C137.133 21.128 137.267 21.6827 137.267 22.312C137.267 22.4507 137.261 22.584 137.251 22.712C137.24 22.8293 137.219 22.9413 137.187 23.048H132.371C132.381 24.1467 132.584 24.936 132.979 25.416C133.384 25.896 133.971 26.136 134.739 26.136C135.272 26.136 135.704 26.0507 136.035 25.88C136.365 25.6987 136.669 25.448 136.947 25.128L137.203 25.368C136.883 25.9547 136.445 26.4133 135.891 26.744C135.347 27.064 134.696 27.224 133.939 27.224C133.181 27.224 132.515 27.064 131.939 26.744C131.363 26.424 130.909 25.9653 130.579 25.368C130.259 24.76 130.099 24.0347 130.099 23.192C130.099 22.3173 130.285 21.576 130.659 20.968C131.043 20.36 131.533 19.896 132.131 19.576C132.739 19.2453 133.373 19.08 134.035 19.08ZM133.955 19.544C133.645 19.544 133.373 19.6347 133.139 19.816C132.915 19.9867 132.733 20.296 132.595 20.744C132.467 21.1813 132.392 21.8 132.371 22.6H135.235C135.352 21.5227 135.309 20.744 135.107 20.264C134.904 19.784 134.52 19.544 133.955 19.544Z" fill="#654348"/>
</svg>
